<svg xmlns="http://www.w3.org/2000/svg"
     width="24" height="24" viewBox="0 0 24 24"
     fill="#ffffff"
     aria-hidden="true">
  <path d="M19.14 12.94c.04-.31.06-.63.06-.94s-.02-.63-.06-.94l2.03-1.58a.5.5 0 0 0 .12-.64l-1.92-3.32a.5.5 0 0 0-.6-.22l-2.39.96c-.5-.38-1.04-.7-1.63-.94L14.4 2.7a.5.5 0 0 0-.5-.4h-3.8a.5.5 0 0 0-.5.4l-.36 2.62c-.59.24-1.13.56-1.63.94l-2.39-.96a.5.5 0 0 0-.6.22L2.7 8.84a.5.5 0 0 0 .12.64l2.03 1.58c-.04.31-.06.63-.06.94s.02.63.06.94L2.82 14.52a.5.5 0 0 0-.12.64l1.92 3.32c.13.22.39.3.6.22l2.39-.96c.5.38 1.04.7 1.63.94l.36 2.62c.04.24.25.4.5.4h3.8c.25 0 .46-.16.5-.4l.36-2.62c.59-.24 1.13-.56 1.63-.94l2.39.96c.22.08.47 0 .6-.22l1.92-3.32a.5.5 0 0 0-.12-.64l-2.03-1.58zM12 15.5A3.5 3.5 0 1 1 12 8a3.5 3.5 0 0 1 0 7.5z"/>
</svg>
