<svg xmlns="http://www.w3.org/2000/svg" width="20" height="20" viewBox="0 0 24 24" fill="none" stroke="white" stroke-width="1.5" stroke-linecap="round" stroke-linejoin="round">
  <circle cx="12" cy="12" r="3.25"></circle>
  <path d="M19.4 15a7.8 7.8 0 0 0 .06-6l2.02-1.56-1.8-3.12-2.45.8a8.08 8.08 0 0 0-5.22-3.02L11.6 1h-3.2l-.4 2.1a8.08 8.08 0 0 0-5.22 3.02l-2.45-.8-1.8 3.12L1.55 9a7.8 7.8 0 0 0 0 6l-2.02 1.56 1.8 3.12 2.45-.8a8.08 8.08 0 0 0 5.22 3.02l.4 2.1h3.2l.4-2.1a8.08 8.08 0 0 0 5.22-3.02l2.45.8 1.8-3.12L19.4 15z"></path>
</svg>
